<svg width="35" height="34" viewBox="0 0 35 34" fill="none" xmlns="http://www.w3.org/2000/svg">
<path d="M33.3219 11.125C34.6661 14.7354 34.7345 18.697 33.5156 22.3516C32.2968 26.0063 29.8641 29.1338 26.6219 31.2146C23.3797 33.2954 19.5231 34.2042 15.6929 33.79C11.8627 33.3757 8.28963 31.6634 5.56726 28.9375C2.50921 25.8895 0.735785 21.7853 0.611932 17.4695C0.488078 13.1536 2.02322 8.95446 4.90144 5.73613C7.77967 2.51779 11.782 0.525117 16.0848 0.168158C20.3877 -0.188801 24.6637 1.11712 28.0329 3.81717L31.1735 0.674982C31.3479 0.50057 31.555 0.362219 31.7829 0.267828C32.0107 0.173437 32.255 0.124854 32.5016 0.124854C32.7483 0.124854 32.9925 0.173437 33.2204 0.267828C33.4483 0.362219 33.6553 0.50057 33.8298 0.674982C34.0042 0.849394 34.1425 1.05645 34.2369 1.28433C34.3313 1.51221 34.3799 1.75645 34.3799 2.00311C34.3799 2.24976 34.3313 2.494 34.2369 2.72188C34.1425 2.94976 34.0042 3.15682 33.8298 3.33123L18.8298 18.3312C18.6553 18.5056 18.4483 18.644 18.2204 18.7384C17.9925 18.8328 17.7483 18.8814 17.5016 18.8814C17.255 18.8814 17.0107 18.8328 16.7829 18.7384C16.555 18.644 16.3479 18.5056 16.1735 18.3312C15.9991 18.1568 15.8607 17.9498 15.7664 17.7219C15.672 17.494 15.6234 17.2498 15.6234 17.0031C15.6234 16.7565 15.672 16.5122 15.7664 16.2843C15.8607 16.0565 15.9991 15.8494 16.1735 15.675L19.9235 11.925C18.8666 11.42 17.6784 11.2576 16.5248 11.4604C15.3711 11.6632 14.3095 12.2211 13.4882 13.0562C12.6668 13.8913 12.1267 14.962 11.9431 16.1189C11.7595 17.2757 11.9417 18.4611 12.4642 19.5094C12.9866 20.5578 13.8233 21.4169 14.8575 21.9669C15.8917 22.5169 17.0718 22.7302 18.2331 22.5773C19.3944 22.4243 20.479 21.9127 21.3356 21.1137C22.1921 20.3146 22.7778 19.2682 23.011 18.1203C23.1092 17.6328 23.3971 17.2042 23.8113 16.9289C24.2255 16.6536 24.7321 16.5541 25.2196 16.6523C25.7071 16.7505 26.1357 17.0384 26.411 17.4526C26.6863 17.8668 26.7858 18.3734 26.6876 18.8609C26.2882 20.8284 25.2678 22.6156 23.7765 23.9597C22.2852 25.3038 20.4019 26.1336 18.4037 26.3271C16.4054 26.5207 14.3979 26.0676 12.6764 25.0347C10.9549 24.0018 9.61052 22.4435 8.84101 20.5893C8.0715 18.735 7.91754 16.6827 8.4018 14.7344C8.88605 12.7861 9.98293 11.0447 11.531 9.76655C13.0791 8.48835 14.9966 7.74085 17.0014 7.63408C19.0061 7.5273 20.9922 8.06689 22.6673 9.17342L25.3594 6.49061C22.8305 4.60194 19.7057 3.68785 16.5576 3.91587C13.4096 4.14388 10.4491 5.49872 8.21872 7.73209C5.98837 9.96547 4.63754 12.9278 4.4138 16.0762C4.19006 19.2246 5.10838 22.3482 7.00048 24.8745C8.89258 27.4008 11.6317 29.1607 14.7159 29.8316C17.8001 30.5026 21.0228 30.0396 23.7934 28.5275C26.564 27.0154 28.6969 24.5556 29.8012 21.5988C30.9055 18.6419 30.9074 15.3862 29.8063 12.4281C29.7187 12.1968 29.6776 11.9505 29.6856 11.7033C29.6935 11.4561 29.7503 11.213 29.8527 10.9878C29.955 10.7627 30.1009 10.56 30.2819 10.3914C30.4628 10.2229 30.6754 10.0918 30.9073 10.0058C31.1391 9.91971 31.3857 9.88039 31.6329 9.89005C31.88 9.89971 32.1228 9.95816 32.3472 10.062C32.5717 10.1659 32.7733 10.3132 32.9406 10.4954C33.1079 10.6775 33.2375 10.891 33.3219 11.1234V11.125Z" fill="#0084D1"/>
</svg>
